<svg xmlns="http://www.w3.org/2000/svg" xmlns:xlink="http://www.w3.org/1999/xlink" width="24" height="24" viewBox="0 0 24 24">
    <defs>
        <path id="prefix__a" d="M11.596 13.169l-2.593-2.593-2.6 2.597c-.434.436-1.141.436-1.576 0-.436-.435-.436-1.14 0-1.576L7.425 9 4.827 6.403c-.436-.436-.436-1.141 0-1.576.435-.436 1.142-.436 1.577 0l2.599 2.597 2.593-2.593c.435-.435 1.141-.435 1.577 0 .435.436.435 1.141 0 1.576l-2.594 2.594 2.594 2.592c.436.435.436 1.141 0 1.576-.435.434-1.142.434-1.577 0z"/>
    </defs>
    <g fill="none" fill-rule="evenodd">
        <rect width="24" height="24" fill="#E33232" fill-rule="nonzero" opacity=".12" rx="3"/>
        <g transform="translate(3 3)">
            <mask id="prefix__b" fill="#fff">
                <use xlink:href="#prefix__a"/>
            </mask>
            <path stroke="#E33232" stroke-linecap="square" stroke-width="1.688" d="M5.063 5.063L12.938 12.938" mask="url(#prefix__b)"/>
            <path stroke="#E33232" stroke-linecap="square" stroke-width="1.688" d="M5.063 5.063L12.938 12.938" mask="url(#prefix__b)" transform="matrix(-1 0 0 1 18 0)"/>
        </g>
    </g>
</svg>
