<svg xmlns="http://www.w3.org/2000/svg" width="13" height="13" viewBox="0 0 13 13">
    <g fill="none" fill-rule="evenodd">
        <path d="M0 0H13V13H0z" transform="matrix(0 -1 -1 0 13 13)"/>
        <path fill="#2D4056" fill-opacity=".601" d="M2.844 6.504c-.005-.145.052-.29.168-.394L8.496 1.17c.209-.187.53-.17.717.038.188.208.171.53-.037.717L4.09 6.506l5.086 4.58c.208.188.225.509.037.717-.187.209-.508.226-.717.038L3.012 6.903c-.116-.104-.173-.25-.168-.394z" transform="matrix(0 -1 -1 0 13 13)"/>
    </g>
</svg>
