<svg xmlns="http://www.w3.org/2000/svg" width="35" height="35" viewBox="0 0 35 35">
    <g fill="none">
        <rect width="34" height="34" x=".5" y=".5" fill="#FFF" stroke="#CDE4F0" rx="3"/>
        <path fill="#298ACF" d="M16.761 13.911c.106 0 .106 0 0 0 .106-.422.211-.633.211-.95v-.211c.106-.528.106-.95 0-1.056v-.105l-.105-.106s0 .106-.106.106c-.211.633-.211 1.372 0 2.322zm-3.167 7.283c-.21.106-.422.212-.527.317-.74.633-1.267 1.372-1.373 1.689.634-.106 1.267-.739 1.9-2.006.106 0 .106 0 0 0 .106 0 0 0 0 0zm9.712-1.583c-.106-.105-.528-.422-2.006-.422h-.211v.105c.739.317 1.478.528 2.005.528h.317v-.105s-.105 0-.105-.106zM24.889 8H10.11C8.95 8 8 8.95 8 10.111V24.89C8 26.05 8.95 27 10.111 27H24.89C26.05 27 27 26.05 27 24.889V10.11C27 8.95 26.05 8 24.889 8zm-1.161 12.456c-.211.105-.528.21-.95.21-.845 0-2.111-.21-3.167-.738-1.794.21-3.167.422-4.222.844-.106 0-.106 0-.211.106-1.267 2.216-2.322 3.272-3.167 3.272-.211 0-.317 0-.422-.106l-.528-.316v-.106c-.105-.21-.105-.316-.105-.528.105-.527.738-1.477 2.005-2.216.211-.106.528-.317.95-.528.317-.528.633-1.161 1.056-1.9.527-1.056.844-2.111 1.16-3.061-.421-1.267-.633-2.006-.21-3.483.105-.423.422-.845.844-.845h.211c.211 0 .422.106.634.211.738.74.422 2.428 0 3.8v.106c.422 1.16 1.055 2.11 1.688 2.744.317.211.528.422.95.634.528 0 .95-.106 1.373-.106 1.266 0 2.11.211 2.427.739.106.211.106.422.106.633-.106.106-.211.422-.422.634zm-6.861-4.117c-.211.739-.634 1.583-1.056 2.533-.211.422-.422.74-.633 1.161h.211c1.372-.527 2.639-.844 3.483-.95-.21-.105-.316-.21-.422-.316-.528-.634-1.161-1.478-1.583-2.428z"/>
    </g>
</svg>
