<svg xmlns="http://www.w3.org/2000/svg" width="35" height="35" viewBox="0 0 35 35">
    <g fill="none" fill-rule="evenodd">
        <rect width="34" height="34" x=".5" y=".5" fill="#FFF" fill-rule="nonzero" stroke="#CDE4F0" rx="3"/>
        <g>
            <path fill="#298ACF" fill-rule="nonzero" d="M19 8H5c-1.66 0-3 1.34-3 3v6h4v4h12v-4h4v-6c0-1.66-1.34-3-3-3zm-3 11H8v-5h8v5zm3-7c-.55 0-1-.45-1-1s.45-1 1-1 1 .45 1 1-.45 1-1 1zm-1-9H6v4h12V3z" transform="translate(6 5)"/>
            <path d="M0 0L24 0 24 24 0 24z" transform="translate(6 5)"/>
        </g>
    </g>
</svg>
