<svg xmlns="http://www.w3.org/2000/svg" width="35" height="35" viewBox="0 0 35 35">
    <g fill="none">
        <rect width="34" height="34" x=".5" y=".5" fill="#FFF" stroke="#CDE4F0" rx="3"/>
        <g fill="#298ACF">
            <path d="M18.644 12c-.212-.213-.47-.32-.775-.32h-5.288l-1.55 1.55c-.44.426-.957.639-1.55.639-.592 0-1.109-.213-1.55-.638l-1.538-1.55H1.094c-.304 0-.562.106-.775.319-.213.212-.319.47-.319.775v3.647c0 .303.106.562.32.774.212.213.47.32.774.32h16.775c.304 0 .563-.107.775-.32.213-.212.32-.47.32-.774v-3.647c0-.304-.107-.563-.32-.775zm-4.273 3.84c-.145.145-.316.217-.513.217-.198 0-.369-.072-.513-.217-.144-.144-.217-.315-.217-.512 0-.198.073-.37.217-.513.144-.145.315-.217.513-.217.197 0 .368.072.513.217.144.144.216.315.216.513 0 .197-.072.368-.216.512zm2.917 0c-.144.145-.315.217-.513.217-.197 0-.368-.072-.513-.217-.144-.144-.216-.315-.216-.512 0-.198.072-.37.216-.513.145-.145.316-.217.513-.217.198 0 .369.072.513.217.144.144.217.315.217.513 0 .197-.073.368-.217.512z" transform="translate(8 8)"/>
            <path d="M8.969 12.193c.137.145.308.217.513.217.205 0 .376-.072.512-.217L15.1 7.088c.235-.22.289-.486.16-.798-.13-.296-.354-.444-.673-.444H11.67V.74c0-.197-.073-.368-.217-.513-.144-.144-.315-.216-.513-.216H8.023c-.198 0-.369.072-.513.216-.144.145-.217.316-.217.513v5.106H4.376c-.32 0-.543.148-.672.444-.13.312-.076.578.16.798l5.105 5.105z" transform="translate(8 8)"/>
        </g>
    </g>
</svg>
