<svg xmlns="http://www.w3.org/2000/svg" width="35" height="35" viewBox="0 0 35 35">
    <g fill="none">
        <rect width="34" height="34" x=".5" y=".5" fill="#FFF" stroke="#CDE4F0" rx="3"/>
        <g fill="#298ACF">
            <path d="M11.842 11.875l3.568-4.75 3.59 4.75h-2.375v1.188c0 1.964-1.598 3.562-3.563 3.562H5.939c-1.965 0-3.563-1.598-3.563-3.563v-1.187H4.75v1.188c0 .654.533 1.187 1.188 1.187h7.125c.654 0 1.187-.533 1.187-1.188v-1.187h-2.408zM7.158 4.75L3.59 9.5 0 4.75h2.375V3.562C2.375 1.599 3.973 0 5.938 0h7.125c1.964 0 3.562 1.598 3.562 3.563V4.75H14.25V3.562c0-.654-.533-1.187-1.188-1.187H5.939c-.655 0-1.188.533-1.188 1.188V4.75h2.408z" transform="translate(8 9)"/>
        </g>
    </g>
</svg>
