<svg xmlns="http://www.w3.org/2000/svg" width="241" height="32" viewBox="0 0 241 32">
    <g fill="none">
        <path fill="#000" d="M36.586 17.596c.055.232.123.462.202.687-.058-.236-.126-.465-.202-.687zm-7.93-7.283l.082.006v-.006h-.082zM63.471.001l-5.42 8.093H44.356c-1.085-.01-2.162.179-3.179.558-.937.347-1.796.876-2.527 1.558-.713.676-1.281 1.49-1.67 2.393-.133.304-.244.617-.333.936-.244-.25-.502-.486-.774-.706-1.102-.894-2.452-1.568-4.011-2-1.037-.28-2.097-.46-3.168-.54v-.003c.14-.423.3-.837.479-1.243.144-.325.297-.643.46-.953.759-1.454 1.761-2.768 2.963-3.883.606-.562 1.26-1.07 1.953-1.519 1.017-.654 2.105-1.19 3.244-1.598.205-.074.412-.145.62-.211 1.839-.588 3.819-.882 5.941-.882h19.117z"/>
        <path fill="#298ACF" d="M63.471 23.116l-5.42 7.999H44.356c-2.364 0-4.551-.403-6.562-1.21-.432-.172-.852-.36-1.26-.562-.676-.334-1.329-.715-1.952-1.141-.706-.483-1.37-1.026-1.984-1.622-1.454-1.41-2.596-3.084-3.424-5.023-.113-.286-.21-.578-.291-.875-.184-.732-.184-1.098-.48-1.43-.256-.217-.103-.094-.16-.136-.463-.341-1.196-.512-2.201-.512H11.206c-1.767 0-3.288-.217-4.565-.65-1.276-.435-2.335-1.04-3.177-1.814-.841-.774-1.484-1.74-1.874-2.814-.408-1.1-.612-2.318-.612-3.653 0-1.457.224-2.782.673-3.976.432-1.17 1.146-2.217 2.078-3.047.938-.836 2.147-1.487 3.628-1.952C8.837.233 10.61 0 12.675 0h22.142c-1.354.695-2.606 1.57-3.723 2.603-1.66 1.546-2.988 3.414-3.905 5.49H12.021c-.978 0-1.705.154-2.18.465-.476.31-.714.868-.713 1.674 0 .806.237 1.372.713 1.697.475.325 1.202.488 2.18.489h14.836c.448 0 .882.013 1.301.038 2.708.164 4.815.857 6.32 2.079.977.792 1.68 1.812 2.108 3.06.055.233.123.462.202.688.052.148.109.295.17.44.38.896.95 1.697 1.672 2.35.207.187.425.362.653.524.584.414 1.221.745 1.894.987 1.02.363 2.096.544 3.18.534l19.114-.002z"/>
        <path fill="#000" d="M32.722 29.574c-.643.347-1.318.63-2.016.844-1.481.465-3.254.698-5.319.698H0l5.42-8h20.623c.454.009.907-.04 1.349-.144.895 1.936 2.137 3.693 3.666 5.181.524.509 1.08.983 1.664 1.421zM83.996 11.68H80.17c-.216-1.9-1.274-3.094-3.228-3.094-1.492 0-2.632.705-2.632 2.225 0 1.575 1.004 2.36 3.989 3.066 4.124.95 5.969 2.85 5.969 5.858 0 3.527-3.229 5.535-6.92 5.535-4.476 0-7.406-1.98-7.759-5.915h3.826c.407 2.062 1.98 3.12 3.88 3.12 1.709 0 3.066-.922 3.066-2.36 0-1.575-.977-2.496-3.745-3.15-3.825-.922-6.24-2.251-6.24-5.697s3.12-5.48 6.701-5.48c4.477.004 6.512 2.554 6.92 5.891zM91.001 13.036v6.676c0 .489 0 .897.027 1.276.109 1.41.624 1.736 2.714 1.574v2.442c-.817.13-1.642.194-2.47.19-2.793 0-3.798-.923-3.961-2.958-.054-.652-.054-1.275-.054-2.09v-7.11h-2.116v-2.47h2.116V6.223h3.744v4.343h2.984v2.47h-2.984zM103.957 10.214v3.012c-3.12-.217-4.668 1.167-4.668 5.046v6.62h-3.742V10.46h3.744v2.631l1.14-2.007c.677-.616 1.555-.963 2.47-.977.355-.01.71.026 1.056.108zM118.203 18.652h-10.256c.245 3.04 1.6 3.989 3.338 3.989 1.601 0 2.768-.896 3.012-2.442h3.745c-.733 3.364-3.446 5.074-6.838 5.074-3.96 0-7.027-2.47-7.027-7.543 0-4.423 2.903-7.651 7.326-7.651 4.422 0 6.755 3.364 6.755 7.298.006.426-.012.852-.055 1.275zm-10.147-2.442h6.348c-.243-2.278-1.274-3.5-3.066-3.5-1.736 0-2.957 1.113-3.282 3.5zM128.29 22.776l-.705 1.547c-1.004.678-2.225.95-3.582.95-2.496 0-4.64-1.465-4.64-4.206 0-3.174 2.714-4.965 7.95-4.965h.923v-.299c.008-.452-.01-.905-.054-1.356-.108-1.004-.76-1.737-2.224-1.737-1.492 0-2.307.869-2.415 2.442l-3.636.027c.109-3.255 2.74-5.101 6.186-5.101 4.043 0 5.562 1.763 5.78 4.26.054.678.08 1.437.08 2.224v4.666c0 1.086.055 2.062.272 3.663h-3.663l-.272-2.115zm-.054-3.204v-1.167c-2.984-.216-4.992.462-4.992 2.361 0 1.275.869 1.873 2.198 1.873 1.519.002 2.794-1.057 2.794-3.067zM156.299 16.292v8.6h-3.745v-7.515c.007-.788-.029-1.576-.108-2.36-.19-1.492-1.004-2.307-2.442-2.307-1.682 0-2.632 1.438-2.632 4.776v7.407h-3.716v-7.516c.007-.788-.03-1.576-.11-2.36-.188-1.492-1.03-2.307-2.468-2.307-1.683 0-2.605 1.438-2.605 4.776v7.407h-3.744V10.459h3.744v2.197l1.058-1.736c.814-.567 1.764-.841 3.067-.841 2.36 0 3.852 1.166 4.422 2.74l1.41-1.9c.814-.566 1.791-.84 3.094-.84 2.74 0 4.314 1.6 4.64 3.581.107.733.135 1.465.135 2.632z"/>
        <path fill="#298ACF" d="M175.92 12.25l.027.27H172.2l-.055-.27c-.46-2.307-1.871-3.664-4.368-3.664-3.011 0-5.046 2.578-5.046 6.838 0 4.666 2.141 7.054 4.992 7.054 2.442 0 3.853-1.465 4.341-3.799l.054-.271h3.716l-.027.271c-.407 3.99-3.446 6.594-8.25 6.594-5.21 0-8.791-3.663-8.791-9.632 0-6.132 3.88-9.849 9.062-9.849 5.08 0 7.71 2.767 8.091 6.457zM198.142 18.652h-10.255c.244 3.04 1.6 3.989 3.338 3.989 1.6 0 2.767-.896 3.011-2.442h3.744c-.732 3.364-3.445 5.074-6.837 5.074-3.961 0-7.027-2.47-7.027-7.543 0-4.423 2.903-7.651 7.325-7.651 4.423 0 6.756 3.364 6.756 7.298.006.426-.012.852-.055 1.275zm-10.147-2.442h6.35c-.245-2.278-1.276-3.5-3.067-3.5-1.736 0-2.954 1.113-3.283 3.5zM208.23 22.776l-.706 1.547c-1.003.678-2.225.95-3.581.95-2.497 0-4.64-1.465-4.64-4.206 0-3.174 2.713-4.965 7.95-4.965h.922v-.299c.008-.452-.01-.905-.054-1.356-.108-1.004-.76-1.737-2.225-1.737-1.492 0-2.306.869-2.414 2.442l-3.636.027c.108-3.255 2.74-5.101 6.186-5.101 4.043 0 5.562 1.763 5.78 4.26.053.678.08 1.437.08 2.224v4.666c0 1.086.055 2.062.272 3.663H208.5l-.271-2.115zm-.055-3.201v-1.167c-2.984-.217-4.992.462-4.992 2.36 0 1.276.869 1.873 2.197 1.873 1.52 0 2.795-1.059 2.795-3.069v.003zM223.079 10.214v3.012c-3.12-.217-4.667 1.167-4.667 5.046v6.62h-3.744V10.46h3.744v2.631l1.14-2.007c.676-.616 1.554-.963 2.468-.977.356-.01.712.026 1.059.108z"/>
        <path fill="#298ACF" d="M231.22 17.809L226.825 24.89 222.375 24.89 229.075 15.451 222.839 6.172 227.181 6.172 231.359 13.09 235.751 6.172 240.065 6.172 233.526 15.368 240.203 24.891 235.833 24.891zM181.912 21.501c-.027-.378-.027-.76-.027-1.33V6.224h-3.744v14.03c0 .948 0 1.627.054 2.278.081 1.873 1.248 2.55 3.093 2.55.77.008 1.54-.029 2.307-.108v-2.577c-1.276.08-1.601-.163-1.683-.896z"/>
    </g>
</svg>
