<svg xmlns="http://www.w3.org/2000/svg" width="159" height="30" viewBox="0 0 159 30">
    <g fill="#2D4056" opacity=".498">
        <path d="M31.896 15.923L31.896 15.923 19.922 15.923 18.35 15.923 16.777 15.923 18.35 18.625 30.324 18.625 31.896 18.625 33.469 18.625z"/>
        <path d="M18.319 13.272L18.319 13.272 12.32 2.909 11.533 1.548 10.745.187 9.194 2.901 15.194 13.264 15.981 14.625 16.769 15.986zM24.361 13.208L24.361 13.208 18.361 2.845 17.573 1.485 16.786.124 15.235 2.838 21.235 13.202 22.022 14.562 22.81 15.923zM30.43 13.208L30.43 13.208 24.431 2.845 23.643 1.485 22.855.124 21.304 2.838 27.304 13.202 28.092 14.562 28.879 15.923z"/>
        <path d="M13.651 15.923L13.651 15.923 7.624 26.27 6.832 27.629 6.041 28.987 9.167 28.989 15.194 18.642 15.986 17.283 16.777 15.924zM10.631 10.741L10.631 10.741 4.603 21.088 3.812 22.447 3.02 23.805 6.147 23.807 12.174 13.46 12.966 12.101 13.757 10.743zM7.61 5.478L7.61 5.478 1.583 15.824.791 17.183 0 18.541 3.126 18.543 9.153 8.196 9.945 6.838 10.736 5.479zM28.876 21.112L28.876 21.112 16.901 21.112 15.329 21.112 13.757 21.112 15.329 23.835 27.304 23.835 28.876 23.835 30.448 23.835zM25.855 26.397L25.855 26.397 13.881 26.397 12.309 26.397 10.736 26.397 12.309 29.12 24.283 29.12 25.855 29.12 27.428 29.12z"/>
        <g>
            <path d="M17.396 4.792L10.897 4.792 10.897 22.468 6.525 22.468 6.525 4.792.114 4.792.114 1.251 17.396 1.251 17.396 4.792zM27.524 10.65c-.573-.077-1.079-.116-1.516-.116-1.593 0-2.637.539-3.132 1.617v10.317h-4.212V6.701h3.978l.117 1.88c.845-1.447 2.016-2.171 3.512-2.171.466 0 .903.063 1.311.19l-.058 4.05zM38.249 22.468c-.195-.379-.335-.85-.423-1.413-1.02 1.136-2.346 1.705-3.978 1.705-1.545 0-2.825-.447-3.84-1.34-1.015-.894-1.522-2.021-1.522-3.381 0-1.671.619-2.954 1.858-3.848 1.238-.893 3.028-1.345 5.37-1.355h1.938v-.903c0-.729-.188-1.312-.561-1.749-.375-.437-.965-.656-1.771-.656-.71 0-1.266.17-1.669.51-.403.34-.604.807-.604 1.4h-4.212c0-.914.282-1.759.846-2.536.563-.777 1.36-1.387 2.39-1.83 1.029-.441 2.185-.662 3.468-.662 1.942 0 3.484.488 4.626 1.464 1.142.977 1.713 2.349 1.713 4.117v6.834c.01 1.497.218 2.628.626 3.396v.247H38.25zm-3.483-2.928c.622 0 1.195-.139 1.72-.416.525-.277.913-.648 1.166-1.115V15.3h-1.574c-2.108 0-3.23.728-3.366 2.186l-.015.248c0 .524.185.956.554 1.296.369.34.874.51 1.515.51zM44.457 14.468c0-2.457.551-4.415 1.654-5.872 1.102-1.457 2.61-2.186 4.525-2.186 1.535 0 2.802.573 3.803 1.72V.084h4.226v22.383H54.86l-.204-1.675c-1.049 1.311-2.399 1.967-4.05 1.967-1.856 0-3.345-.73-4.467-2.193-1.122-1.462-1.683-3.495-1.683-6.099zm4.211.3c0 1.483.258 2.62.772 3.41.515.791 1.263 1.186 2.244 1.186 1.302 0 2.22-.55 2.755-1.653v-6.252c-.525-1.102-1.433-1.654-2.725-1.654-2.03 0-3.046 1.655-3.046 4.963zM61.9 2.621c0-.631.21-1.151.633-1.56.423-.407.999-.611 1.727-.611.72 0 1.292.204 1.72.612.427.408.641.928.641 1.56 0 .64-.216 1.165-.649 1.573-.432.408-1.003.612-1.712.612-.71 0-1.28-.204-1.712-.612-.432-.408-.648-.933-.648-1.574zm4.473 19.847h-4.226V6.701h4.226v15.767zM74.883 2.825v3.876h2.696v3.09h-2.696v7.869c0 .583.112 1 .336 1.253.223.253.65.379 1.282.379.467 0 .88-.034 1.239-.102v3.191c-.826.253-1.676.38-2.55.38-2.954 0-4.46-1.492-4.518-4.474V9.79H68.37V6.7h2.302V2.825h4.211zM79.896 2.621c0-.631.212-1.151.634-1.56.423-.407.998-.611 1.727-.611.719 0 1.292.204 1.72.612.427.408.64.928.64 1.56 0 .64-.216 1.165-.648 1.573-.432.408-1.003.612-1.712.612-.71 0-1.28-.204-1.712-.612-.433-.408-.649-.933-.649-1.574zm4.474 19.847h-4.226V6.701h4.226v15.767zM87.182 14.44c0-1.565.301-2.96.904-4.183.602-1.224 1.469-2.171 2.6-2.842 1.133-.67 2.447-1.005 3.943-1.005 2.127 0 3.864.65 5.21 1.953 1.345 1.301 2.095 3.07 2.25 5.304l.03 1.078c0 2.419-.675 4.36-2.025 5.822-1.35 1.462-3.163 2.193-5.436 2.193s-4.087-.729-5.443-2.186c-1.355-1.457-2.032-3.44-2.032-5.946v-.189zm4.212.298c0 1.498.281 2.644.845 3.437.563.793 1.37 1.19 2.419 1.19 1.02 0 1.816-.392 2.39-1.175.573-.784.86-2.036.86-3.758 0-1.47-.287-2.608-.86-3.416-.574-.807-1.38-1.21-2.42-1.21-1.03 0-1.826.4-2.39 1.203-.563.803-.844 2.046-.844 3.729zM108.589 6.701l.13 1.822c1.128-1.409 2.638-2.113 4.533-2.113 1.67 0 2.914.49 3.73 1.472.816.98 1.234 2.448 1.253 4.4v10.186h-4.21V12.361c0-.896-.195-1.545-.584-1.95-.388-.404-1.034-.606-1.938-.606-1.185 0-2.074.506-2.666 1.52v11.143h-4.212V6.701h3.964z" transform="translate(39.573 3.298)"/>
        </g>
    </g>
</svg>
