<svg xmlns="http://www.w3.org/2000/svg" xmlns:xlink="http://www.w3.org/1999/xlink" width="27" height="20" viewBox="0 0 27 20">
    <defs>
        <path id="prefix__a" d="M12.65.575C6.9.575 1.99 4.152 0 9.2c1.99 5.049 6.9 8.625 12.65 8.625S23.31 14.249 25.3 9.2C23.31 4.152 18.4.575 12.65.575zm0 14.375c-3.174 0-5.75-2.576-5.75-5.75s2.576-5.75 5.75-5.75S18.4 6.026 18.4 9.2s-2.576 5.75-5.75 5.75zm0-9.2c-1.909 0-3.45 1.541-3.45 3.45 0 1.909 1.541 3.45 3.45 3.45 1.909 0 3.45-1.541 3.45-3.45 0-1.909-1.541-3.45-3.45-3.45z"/>
    </defs>
    <g fill="none" fill-rule="evenodd" transform="translate(.8 .8)">
        <use fill="#D0CFCF" xlink:href="#prefix__a"/>
    </g>
</svg>
