<svg xmlns="http://www.w3.org/2000/svg" width="24" height="24" viewBox="0 0 24 24">
    <g fill="none" fill-rule="evenodd">
        <rect width="24" height="24" fill="#1FABE1" fill-rule="nonzero" opacity=".119" rx="3"/>
        <g>
            <path fill="#1FABE1" fill-rule="nonzero" d="M10.333 9.333h-.526l-.187-.18c.653-.76 1.047-1.746 1.047-2.82C10.667 3.94 8.727 2 6.333 2 3.94 2 2 3.94 2 6.333c0 2.394 1.94 4.334 4.333 4.334 1.074 0 2.06-.394 2.82-1.047l.18.187v.526l3.334 3.327.993-.993-3.327-3.334zm-4 0c-1.66 0-3-1.34-3-3s1.34-3 3-3 3 1.34 3 3-1.34 3-3 3z" transform="translate(4 4)"/>
            <path d="M0 0L16 0 16 16 0 16z" transform="translate(4 4)"/>
        </g>
        <path fill="#1FABE1" fill-rule="nonzero" d="M12.005 9.803h-1.204V8.6c0-.277-.223-.499-.499-.499s-.499.222-.499.499v1.204H8.6c-.277 0-.499.223-.499.499s.222.499.499.499h1.204v1.204c0 .277.223.5.499.5s.499-.223.499-.5v-1.204h1.204c.277 0 .5-.223.5-.499s-.226-.499-.5-.499z"/>
    </g>
</svg>
